<?xml version="1.0" standalone="no"?>
<!DOCTYPE svg PUBLIC "-//W3C//DTD SVG 20010904//EN"
 "http://www.w3.org/TR/2001/REC-SVG-20010904/DTD/svg10.dtd">
<svg version="1.0" xmlns="http://www.w3.org/2000/svg"
 width="600.000000pt" height="600.000000pt" viewBox="0 0 600.000000 600.000000"
 preserveAspectRatio="xMidYMid meet">
<metadata>
Created by potrace 1.16, written by Peter Selinger 2001-2019
</metadata>
<g transform="translate(0.000000,600.000000) scale(0.015000,-0.015000)"
fill="#000000" stroke="none">
<path d="M23868 27929 c-869 -32 -1737 -245 -2465 -605 -336 -167 -660 -371
-938 -593 l-70 -56 -255 -1 c-184 0 -288 -5 -375 -18 -517 -74 -968 -259
-1320 -543 -387 -312 -645 -785 -774 -1419 -17 -82 -51 -268 -75 -414 -71
-418 -100 -544 -168 -730 -67 -185 -124 -286 -263 -475 -195 -263 -229 -312
-323 -452 -92 -138 -187 -291 -242 -390 -13 -24 -27 -43 -31 -43 -5 0 -64 32
-131 71 -1113 640 -2491 871 -3765 630 -87 -17 -95 -17 -100 -2 -49 142 -202
490 -314 713 -352 703 -735 1113 -1118 1194 -86 18 -230 18 -310 -1 -248 -59
-467 -283 -674 -692 -314 -620 -605 -1708 -832 -3115 l-25 -156 -66 -88 c-256
-340 -524 -813 -689 -1217 -70 -173 -182 -509 -229 -687 -40 -151 -116 -520
-116 -562 0 -37 -12 -41 -94 -39 -93 3 -241 -15 -339 -40 -89 -22 -207 -67
-207 -78 0 -4 66 -18 147 -30 166 -26 443 -78 450 -85 2 -2 -1 -77 -8 -165
-15 -212 -7 -688 16 -874 9 -76 15 -141 12 -143 -2 -3 -55 -18 -116 -34 -196
-51 -318 -108 -450 -209 -52 -39 -69 -57 -58 -59 10 -2 95 6 190 17 210 25
377 41 437 41 l46 0 28 -117 c73 -303 179 -588 323 -873 51 -101 93 -187 93
-190 0 -4 -18 -16 -39 -28 -114 -64 -298 -229 -386 -347 -57 -77 -121 -192
-111 -202 3 -3 81 39 173 94 93 55 202 118 243 140 186 100 249 133 253 133 3
0 28 -34 57 -76 247 -357 602 -719 993 -1012 l97 -73 -24 -42 c-13 -23 -61
-109 -106 -192 -219 -396 -566 -944 -871 -1375 -143 -202 -134 -184 -134 -269
l0 -76 100 -145 c305 -440 696 -933 1089 -1370 145 -160 672 -693 864 -871
l122 -114 -14 -80 c-42 -234 -47 -675 -12 -930 40 -286 108 -561 192 -773 277
-700 716 -1020 1221 -891 104 26 298 124 403 203 112 84 272 251 343 357 70
106 135 229 178 339 18 47 34 87 36 89 1 2 57 -26 123 -63 66 -37 199 -108
295 -157 133 -69 176 -96 179 -112 3 -12 10 -58 16 -102 40 -300 152 -611 297
-829 168 -252 401 -409 698 -471 93 -19 263 -22 354 -5 240 43 460 174 673
400 61 66 124 128 138 139 l27 19 154 -44 c595 -171 1338 -321 1972 -399 249
-30 315 -32 365 -6 77 40 95 79 132 293 63 366 89 651 93 1000 1 119 3 216 3
215 1 -1 35 -47 77 -102 372 -493 997 -880 1812 -1120 372 -109 855 -200 1180
-221 87 -6 199 3 265 22 10 2 33 -27 73 -94 166 -280 430 -548 692 -704 451
-269 1002 -349 1508 -219 559 145 977 519 1147 1028 52 157 71 266 77 458 7
200 -12 380 -62 578 -5 17 -3 27 4 27 20 0 596 292 801 405 254 141 607 353
845 508 l190 124 55 -106 c77 -148 167 -275 272 -386 270 -285 589 -417 973
-401 421 17 840 195 1126 478 311 308 497 734 575 1313 20 151 31 541 22 745
-14 271 -62 644 -117 898 l-18 85 134 161 c237 282 461 594 595 826 31 52 118
192 195 310 405 624 721 1196 921 1665 84 197 106 267 99 315 -6 47 -58 155
-183 380 -287 517 -618 968 -994 1354 -372 382 -765 671 -1211 891 -80 39
-163 84 -185 100 -21 16 -41 30 -43 32 -2 1 39 49 91 105 453 494 777 1049
963 1648 l41 135 60 39 c821 538 1365 1299 1538 2152 55 271 61 336 61 699 -1
363 -8 450 -61 715 -165 828 -635 1568 -1384 2177 -207 169 -415 315 -831 583
-283 183 -464 396 -749 885 -319 547 -447 729 -670 953 -347 349 -716 537
-1195 609 -151 22 -580 25 -725 5 -253 -36 -479 -93 -681 -173 l-128 -50 -133
46 c-626 218 -1285 311 -2010 284z m797 -413 c682 -78 1286 -271 1845 -590
821 -470 1537 -1210 1931 -1998 134 -268 236 -417 507 -746 420 -508 544 -667
705 -903 239 -352 453 -771 582 -1141 19 -55 35 -103 35 -106 0 -4 -44 81 -98
188 -230 458 -462 794 -982 1420 -347 418 -438 546 -556 783 -164 326 -307
550 -541 843 -545 686 -1254 1223 -2033 1543 l-123 51 -28 -33 c-48 -58 -116
-81 -244 -81 -214 -1 -429 75 -553 196 -49 48 -67 78 -77 130 l-7 36 -79 12
c-43 7 -85 10 -93 7 -29 -11 -239 -304 -348 -487 -578 -961 -743 -2113 -461
-3215 293 -1147 1103 -2149 2168 -2683 330 -165 609 -265 969 -347 82 -19 151
-37 154 -40 8 -8 -53 -153 -111 -265 -225 -433 -577 -743 -962 -846 -84 -22
-128 -27 -273 -31 -112 -4 -201 -1 -250 7 -311 49 -613 208 -852 449 -105 106
-158 180 -225 317 -73 148 -94 97 211 519 147 204 278 388 291 410 44 76 27
173 -40 232 -71 62 -36 64 -869 -30 -509 -58 -766 -91 -786 -101 -43 -22 -90
-81 -98 -121 -10 -53 1 -123 23 -154 15 -21 292 -278 706 -657 l39 -35 -17
-82 c-52 -259 -158 -453 -369 -675 -194 -202 -419 -340 -662 -404 -112 -30
-130 -32 -299 -32 -140 -1 -199 3 -264 18 -268 58 -517 187 -729 378 -182 164
-323 358 -554 763 -30 52 -38 60 -64 60 -26 0 -30 -4 -42 -50 -7 -27 -16 -99
-19 -160 -16 -323 128 -655 402 -930 247 -247 519 -388 890 -462 69 -13 141
-17 310 -18 l220 0 53 -115 c85 -189 184 -408 529 -1175 l329 -730 18 -135
c30 -231 69 -355 148 -472 21 -31 38 -60 38 -63 0 -4 14 -20 30 -37 17 -16 27
-35 23 -41 -3 -7 -2 -9 2 -4 10 9 76 -53 69 -64 -3 -5 2 -6 10 -3 8 3 19 -3
26 -15 6 -12 15 -21 19 -21 5 0 33 -16 62 -36 78 -53 182 -100 279 -126 69
-18 112 -22 230 -23 145 0 231 5 240 15 7 7 120 43 142 45 10 1 25 8 35 17 32
27 121 70 132 64 7 -4 8 -1 5 8 -3 9 -2 16 3 16 5 0 37 25 70 54 48 44 63 53
74 43 11 -10 11 -9 1 4 -10 13 -9 19 1 28 8 6 17 7 21 3 4 -4 6 -2 4 3 -4 15
44 75 55 68 6 -3 7 -1 4 4 -4 6 1 21 11 34 10 13 24 36 31 51 8 15 19 25 24
21 6 -3 7 -1 4 4 -4 6 6 40 23 74 30 65 70 204 70 244 0 12 3 25 7 29 11 11 5
130 -13 291 l-16 140 92 440 c50 242 113 548 140 680 97 472 210 1020 215
1035 3 11 34 21 95 33 272 51 585 197 801 373 305 248 514 639 536 1003 l6
103 36 -6 c99 -15 413 -27 566 -21 803 31 1509 251 2159 672 54 35 100 63 101
61 6 -7 26 -216 35 -373 12 -195 11 -682 -1 -830 -14 -170 -42 -356 -51 -343
-5 8 -6 3 -3 -12 7 -28 -10 -120 -56 -305 -27 -110 -93 -326 -108 -350 -3 -5
-6 -16 -8 -24 -1 -8 -5 -17 -10 -20 -4 -3 -9 -16 -10 -28 -2 -21 -42 -114
-120 -285 -20 -43 -40 -75 -46 -71 -6 3 -7 1 -3 -5 9 -15 -45 -113 -58 -105
-5 3 -6 1 -2 -5 9 -15 -12 -54 -24 -47 -6 4 -7 -1 -3 -11 5 -13 3 -15 -7 -9
-9 5 -11 4 -6 -4 9 -14 -52 -113 -65 -105 -5 3 -6 -3 -2 -12 4 -11 2 -15 -4
-11 -6 4 -10 -1 -9 -10 0 -10 -4 -18 -11 -18 -6 0 -15 -4 -20 -9 -5 -5 -3 -6
5 -2 6 4 12 5 12 1 0 -8 -52 -85 -57 -85 -2 0 -1 5 3 12 4 7 3 8 -5 4 -6 -4
-9 -12 -5 -17 8 -13 -16 -40 -29 -32 -6 4 -7 1 -2 -7 5 -8 1 -18 -10 -27 -11
-7 -15 -13 -11 -13 4 0 -6 -18 -24 -40 -17 -22 -36 -39 -42 -37 -6 1 -13 -5
-15 -13 -4 -13 -3 -13 6 0 6 8 11 10 11 4 0 -5 -21 -35 -46 -65 -25 -30 -60
-71 -77 -93 -18 -21 -55 -64 -83 -95 -29 -31 -69 -75 -89 -99 -23 -25 -44 -41
-52 -38 -8 4 -11 1 -7 -5 3 -6 -6 -24 -22 -40 -23 -24 -30 -27 -43 -16 -14 10
-14 10 -4 -4 13 -16 -5 -35 -201 -211 -10 -10 -24 -15 -29 -11 -6 3 -7 2 -4
-4 8 -13 -80 -86 -95 -77 -6 4 -8 3 -5 -3 9 -14 -81 -86 -99 -79 -9 3 -12 2
-9 -5 9 -14 -15 -41 -31 -35 -7 3 -18 -3 -26 -12 -12 -15 -11 -16 5 -3 9 7 17
11 17 8 0 -12 -84 -66 -93 -60 -6 3 -7 2 -4 -4 4 -6 -19 -28 -51 -49 -31 -21
-77 -54 -100 -72 -24 -17 -49 -29 -55 -25 -7 3 -9 3 -5 -2 11 -11 -60 -58 -74
-49 -6 4 -8 3 -5 -2 3 -6 -32 -34 -78 -63 -79 -51 -103 -61 -97 -39 1 5 -2 7
-7 3 -6 -3 -8 -12 -4 -20 3 -8 1 -15 -5 -15 -5 0 -37 -18 -71 -41 -34 -23 -66
-37 -72 -33 -8 5 -9 3 -4 -6 6 -10 4 -12 -11 -6 -10 4 -15 4 -11 0 10 -10 -31
-36 -45 -28 -6 4 -8 3 -5 -3 4 -6 0 -14 -9 -17 -25 -10 -36 -7 -28 7 4 7 3 9
-2 4 -5 -5 -9 -14 -9 -20 0 -15 -77 -58 -93 -52 -7 3 -11 1 -8 -4 10 -16 -461
-246 -498 -243 -10 0 -15 -2 -12 -5 6 -6 -290 -140 -323 -147 -9 -1 -32 -10
-51 -18 -61 -28 -134 -56 -155 -60 -11 -1 -22 -5 -25 -9 -12 -12 -213 -78
-223 -72 -5 3 -7 2 -4 -4 8 -12 -561 -193 -620 -197 -12 0 -23 -5 -23 -9 0 -5
-8 -7 -17 -5 -10 1 -22 0 -28 -4 -12 -7 -293 -78 -303 -76 -4 1 -14 -1 -22 -5
-28 -10 -155 -38 -191 -41 -20 -2 -40 -5 -45 -8 -9 -6 -314 -48 -349 -48 -11
0 -60 -4 -109 -10 -374 -40 -1020 -59 -1431 -41 -274 12 -630 38 -655 48 -8 3
-24 5 -36 4 -51 -5 -652 85 -670 100 -6 5 -13 6 -16 3 -7 -6 -220 36 -228 45
-3 3 -21 7 -40 9 -101 8 -679 171 -688 194 -2 4 -7 6 -12 3 -5 -3 -21 0 -37 7
-34 14 -39 15 -59 17 -9 0 -12 6 -8 13 4 6 3 8 -3 5 -10 -6 -181 50 -193 62
-3 3 -12 7 -21 9 -49 8 -541 241 -534 253 3 4 -3 6 -13 5 -9 0 -16 4 -15 11 2
8 -4 10 -14 6 -12 -5 -14 -3 -8 7 5 9 4 11 -3 6 -15 -9 -93 34 -85 47 3 6 1 7
-6 3 -6 -4 -32 6 -57 23 -25 17 -47 31 -50 31 -3 0 -24 13 -47 28 -23 16 -65
44 -94 63 -28 19 -49 38 -45 43 3 5 1 6 -5 3 -9 -6 -83 38 -83 49 0 3 5 2 12
-2 7 -4 8 -3 4 5 -4 6 -12 9 -17 6 -18 -12 -395 297 -384 315 3 5 0 12 -6 16
-8 5 -9 3 -4 -6 6 -9 4 -11 -4 -6 -7 5 -10 14 -7 22 3 7 1 16 -5 19 -5 4 -9 3
-8 -2 4 -24 -3 -25 -18 -3 -10 14 -17 28 -15 33 1 4 -1 6 -5 5 -5 -2 -19 5
-33 15 l-25 17 30 -5 c17 -3 84 -12 150 -20 66 -9 216 -32 333 -51 117 -20
216 -34 218 -31 9 8 -82 88 -157 138 -38 25 -66 49 -63 52 3 3 -1 4 -8 4 -7
-1 -49 16 -93 37 -44 20 -116 49 -160 63 -44 14 -84 28 -90 31 -5 4 -17 7 -25
7 -8 1 -34 5 -57 9 l-43 9 0 108 c0 59 3 110 8 112 4 3 4 92 0 199 -19 523
-64 860 -174 1296 l-53 213 35 172 c261 1271 383 2312 353 3016 -26 636 -166
1007 -436 1162 -38 22 -52 36 -49 47 18 61 39 156 61 273 164 890 699 1832
1418 2497 878 813 1975 1263 3332 1366 132 10 787 -3 920 -18z m2700 -77 c225
-19 474 -83 627 -160 150 -76 294 -179 433 -311 183 -173 327 -370 560 -768
76 -129 163 -275 193 -325 200 -327 409 -575 617 -730 38 -30 162 -113 275
-185 449 -289 723 -503 995 -775 551 -550 860 -1157 962 -1885 22 -157 25
-611 5 -770 -39 -315 -130 -625 -263 -899 -43 -90 -81 -162 -83 -160 -3 2 11
49 31 104 151 431 202 940 143 1430 -114 962 -618 1778 -1520 2464 -158 120
-282 206 -515 356 -259 166 -329 219 -450 341 -173 174 -299 352 -535 759
-248 428 -391 632 -574 822 -235 245 -492 414 -766 503 -223 73 -543 114 -797
103 -61 -3 -124 -2 -140 2 l-28 8 30 8 c67 20 249 51 370 63 164 17 278 19
430 5z m-7405 -1163 c0 -3 -12 -17 -27 -33 -16 -16 -56 -59 -90 -95 -48 -52
-72 -69 -105 -78 -266 -67 -605 -229 -813 -389 -380 -292 -626 -731 -750
-1341 -14 -69 -44 -233 -66 -365 -50 -300 -81 -457 -121 -607 l-30 -117 -67
-40 c-36 -21 -115 -73 -175 -115 -66 -47 -103 -68 -94 -54 68 105 156 302 208
463 60 189 80 286 190 925 101 584 264 965 533 1247 289 302 751 516 1267 588
105 14 140 17 140 11z m-8838 -1887 c101 -39 214 -128 333 -261 190 -214 410
-588 602 -1028 138 -314 143 -330 109 -330 -11 0 -317 -98 -357 -114 -13 -6
-22 8 -44 71 -165 462 -339 758 -520 883 -115 79 -249 97 -357 48 -218 -100
-377 -437 -547 -1166 -37 -155 -102 -481 -127 -635 l-17 -108 -106 -92 c-58
-51 -146 -129 -195 -174 -49 -46 -91 -81 -93 -79 -2 2 12 89 32 192 249 1300
536 2190 836 2594 95 129 181 201 262 221 44 10 132 0 189 -22z m7623 -1363
c67 -30 109 -76 151 -163 210 -434 169 -1505 -117 -3093 l-12 -64 -71 144
c-40 80 -95 188 -124 241 l-52 97 45 237 c118 628 171 1154 145 1433 -25 277
-96 424 -235 492 -44 22 -63 25 -165 25 -104 0 -122 -3 -183 -29 -190 -80
-441 -294 -691 -589 -55 -64 -104 -117 -109 -117 -5 0 -39 26 -76 58 -36 31
-108 88 -158 126 l-92 70 52 60 c75 86 417 429 517 518 526 466 939 660 1175
554z m7277 -255 c175 -111 204 -469 44 -545 -154 -73 -329 126 -314 358 6 85
43 164 92 196 48 31 121 27 178 -9z m-11997 -191 c1508 -108 2832 -813 3755
-1999 512 -659 870 -1476 1009 -2301 53 -319 66 -472 66 -837 0 -182 -3 -334
-6 -337 -3 -3 -52 -11 -110 -16 -57 -6 -156 -22 -219 -36 -110 -24 -288 -88
-331 -118 -18 -13 -16 -14 33 -20 78 -9 366 -34 496 -42 l112 -7 -6 -51 c-33
-283 -109 -640 -189 -895 -24 -75 -29 -83 -48 -78 -266 62 -367 77 -521 77
-80 0 -218 -14 -261 -27 -27 -8 17 -26 397 -168 172 -65 314 -118 316 -120 5
-4 -101 -233 -160 -345 -109 -206 -255 -428 -384 -585 l-56 -67 -47 45 c-110
106 -285 228 -435 304 -100 50 -287 116 -318 111 -16 -2 51 -73 305 -325 l326
-322 -81 -76 c-1000 -941 -2597 -1335 -4438 -1095 -1650 216 -3039 877 -3843
1828 -88 104 -221 281 -216 286 2 2 76 37 164 78 276 129 382 185 362 193 -9
4 -99 5 -200 2 -180 -5 -273 -19 -410 -60 l-47 -15 -39 66 c-110 189 -236 479
-299 687 -39 126 -76 274 -70 280 3 3 577 25 671 25 32 0 8 19 -74 61 -148 74
-390 140 -571 155 -88 8 -79 -4 -97 134 -31 236 -38 642 -15 881 l7 66 146
-39 c247 -66 593 -150 597 -145 3 2 -28 35 -68 72 -138 127 -359 257 -555 325
-82 29 -92 35 -88 54 2 11 14 75 25 142 168 1012 682 1997 1430 2744 722 721
1627 1210 2623 1415 194 40 488 82 662 93 186 13 534 14 700 2z m15223 -5896
c-238 -327 -581 -667 -953 -945 -597 -444 -1360 -797 -2187 -1009 l-168 -43
-88 41 c-414 192 -864 122 -1204 -188 l-67 -61 -133 -9 c-578 -40 -1277 27
-1883 180 -565 143 -1064 349 -1517 626 -47 28 -66 53 -30 39 58 -22 327 -101
474 -139 558 -144 1142 -230 1823 -267 282 -15 1112 -6 1380 15 532 43 847 94
1275 207 1276 337 2430 894 3236 1560 53 43 98 79 100 79 2 0 -24 -39 -58 -86z
m773 -206 c696 -420 1323 -1127 1818 -2051 l53 -98 -58 -137 c-128 -304 -400
-815 -656 -1232 -79 -130 -294 -469 -302 -478 -2 -1 -44 23 -95 53 -589 355
-1225 472 -1796 329 -216 -55 -472 -169 -663 -297 -116 -78 -317 -266 -419
-392 -520 -644 -791 -1721 -688 -2730 18 -175 47 -347 83 -493 25 -101 26
-114 12 -126 -24 -22 -348 -232 -525 -341 -351 -216 -653 -384 -1041 -578
l-252 -126 -47 92 c-307 601 -878 992 -1701 1166 -348 74 -659 105 -1049 104
-569 0 -1074 -80 -1680 -263 -302 -92 -755 -273 -775 -311 -6 -10 -5 -23 4
-34 12 -17 27 -16 312 19 1040 126 1599 169 2224 170 551 1 874 -41 1226 -158
731 -244 1146 -712 1276 -1436 8 -45 13 -145 12 -250 0 -155 -3 -187 -27 -282
-22 -91 -84 -240 -106 -258 -3 -3 -7 -12 -9 -20 -2 -8 -11 -26 -20 -39 -9 -13
-26 -38 -37 -56 -11 -18 -25 -38 -32 -46 -62 -74 -97 -108 -104 -103 -5 3 -8
2 -7 -3 5 -14 -46 -64 -60 -58 -7 2 -10 0 -7 -5 3 -6 1 -10 -4 -10 -6 0 -12
19 -13 43 -2 54 -4 69 -11 87 -14 35 -28 131 -21 142 4 7 3 9 -1 5 -5 -4 -28
48 -50 115 -45 136 -84 225 -148 336 -32 57 -45 72 -62 70 -19 -3 -20 -8 -18
-188 2 -142 -7 -511 -20 -798 0 -10 -14 -17 -57 -27 -3 -1 -18 -7 -34 -14 -16
-6 -31 -9 -34 -6 -3 2 -10 1 -16 -4 -23 -19 -207 -48 -347 -56 l-96 -6 -5 158
c-6 179 -36 343 -95 522 -62 187 -147 351 -183 351 -18 0 -19 -11 -23 -292 -3
-161 -5 -306 -6 -323 -2 -58 -30 -357 -33 -361 -5 -5 -132 31 -150 42 -7 5
-19 9 -27 11 -38 5 -190 77 -184 86 3 5 1 7 -5 3 -28 -17 -339 201 -336 237 1
10 -4 13 -14 10 -11 -5 -13 -3 -7 7 6 9 4 11 -4 6 -8 -5 -29 10 -57 40 -25 27
-62 67 -82 89 -61 65 -124 153 -118 164 4 5 1 13 -5 17 -8 4 -9 3 -5 -4 4 -7
5 -12 3 -12 -10 0 -98 151 -93 159 4 5 1 13 -5 17 -8 4 -9 3 -5 -4 4 -7 5 -12
2 -12 -11 0 -46 81 -40 92 4 7 3 8 -4 4 -11 -6 -14 0 -11 20 0 4 -4 10 -9 13
-23 14 -122 226 -257 550 -52 122 -101 234 -110 247 -16 24 -49 32 -60 14 -8
-12 -21 -98 -35 -216 -16 -147 13 -458 56 -595 3 -13 -4 -18 -30 -23 -34 -7
-259 15 -366 35 -30 5 -75 12 -99 15 -75 8 -355 65 -367 75 -6 5 -13 7 -15 4
-12 -11 -441 110 -447 126 -2 4 -10 5 -19 2 -12 -5 -14 -3 -8 7 5 8 4 11 -3 6
-14 -9 -63 4 -57 14 3 5 -5 6 -17 2 -14 -3 -19 -1 -14 6 4 8 2 10 -8 6 -8 -3
-36 4 -63 17 -26 12 -56 23 -65 25 -9 2 -59 22 -110 45 -51 22 -105 45 -120
51 -16 5 -25 15 -21 21 3 6 1 7 -6 3 -12 -8 -253 113 -246 124 2 4 -1 7 -8 7
-23 0 -127 65 -120 75 4 7 1 8 -7 3 -10 -6 -12 -4 -6 11 6 15 5 16 -5 7 -9
-10 -27 -2 -79 35 -101 71 -150 114 -143 126 3 6 3 8 -2 4 -11 -11 -47 11 -39
24 4 7 2 8 -5 4 -16 -11 -206 178 -196 194 5 9 4 11 -3 6 -12 -7 -131 135
-163 194 -9 16 -22 36 -29 44 -6 9 -8 21 -4 28 4 7 4 10 -1 6 -4 -4 -15 5 -23
20 -37 70 -64 125 -66 136 -1 6 -4 16 -8 21 -4 6 -19 42 -33 80 -299 785 -342
1968 -114 3100 264 1310 847 2503 1702 3483 54 61 101 112 104 112 3 0 47 -26
97 -59 753 -485 1773 -800 2851 -880 66 -5 248 -10 404 -10 157 -1 286 -3 288
-4 1 -2 -5 -32 -14 -67 -12 -47 -17 -110 -17 -230 -1 -150 2 -174 27 -265 29
-107 96 -256 149 -333 48 -69 182 -205 257 -261 118 -88 269 -153 425 -185
102 -22 295 -22 406 -1 197 38 398 146 546 294 136 136 227 294 281 487 26 91
28 113 27 269 0 150 -3 181 -26 265 -25 93 -86 235 -127 295 l-20 31 137 39
c184 52 509 162 693 235 799 319 1424 715 1968 1245 221 215 409 438 572 676
l61 88 106 -53 c59 -30 155 -83 213 -118z m-10754 -218 c194 -162 461 -346
700 -483 108 -62 437 -225 540 -268 46 -19 83 -36 83 -39 0 -3 -42 -51 -93
-105 -881 -949 -1494 -2052 -1841 -3313 -171 -620 -258 -1216 -282 -1926 l-7
-199 -67 140 c-181 378 -416 743 -672 1048 l-85 100 -157 700 c-336 1493 -338
1500 -324 1508 379 221 583 367 843 606 61 55 113 101 117 101 4 0 74 -78 155
-172 159 -186 165 -189 144 -74 -19 100 -61 223 -108 313 -23 47 -43 90 -43
95 0 6 20 32 44 59 57 63 208 262 274 360 126 189 241 396 337 609 l62 138
119 -53 c65 -29 189 -86 274 -127 85 -41 157 -74 159 -71 10 8 -114 176 -178
241 -67 68 -206 179 -264 208 -20 11 -27 21 -24 32 3 9 24 76 46 147 42 131
85 295 116 438 9 42 19 77 21 77 2 0 52 -41 111 -90z m6278 -1835 c33 -8 98
-34 145 -57 69 -33 101 -57 170 -127 135 -136 193 -275 194 -466 0 -120 -14
-183 -64 -290 -88 -187 -243 -313 -447 -365 -324 -83 -673 104 -788 423 -94
257 -27 530 175 720 74 70 191 135 290 161 74 20 250 20 325 1z m-15179 -1281
c476 -372 1147 -704 1784 -884 63 -18 116 -33 117 -34 2 -1 -7 -26 -18 -55
-55 -145 -70 -385 -35 -546 87 -391 391 -696 784 -783 116 -25 330 -23 445 6
487 121 818 570 782 1058 l-7 91 98 7 c817 56 1435 218 2019 530 105 56 313
188 402 255 l41 31 21 -87 c11 -49 101 -450 201 -893 100 -443 188 -816 197
-829 8 -13 38 -49 67 -80 361 -392 729 -1056 935 -1681 254 -777 323 -1614
200 -2455 -11 -77 -22 -142 -25 -144 -9 -9 -818 110 -830 122 -2 1 -12 74 -24
162 -49 376 -129 774 -211 1060 -331 1144 -848 1789 -1544 1926 -110 22 -477
19 -584 -5 -512 -112 -889 -465 -1103 -1035 -74 -197 -139 -492 -153 -697 -3
-49 -8 -104 -11 -122 l-5 -33 -107 58 c-102 54 -363 201 -369 207 -2 1 2 38 7
82 17 123 14 469 -5 629 -62 536 -248 1052 -508 1415 -81 112 -248 283 -345
353 -208 150 -376 197 -697 197 -411 0 -788 -131 -1125 -390 -41 -32 -88 -70
-103 -85 l-28 -27 -36 39 c-20 21 -71 74 -113 118 -395 414 -875 1002 -1218
1491 l-22 32 30 41 c137 189 552 830 720 1112 l63 107 102 -89 c56 -49 151
-128 211 -175z m19385 -630 c269 -37 593 -160 836 -317 l83 -54 -67 -98 c-37
-53 -83 -114 -102 -133 -20 -20 -27 -30 -16 -22 12 8 9 2 -7 -16 -16 -17 -28
-33 -28 -37 0 -8 -135 -185 -154 -202 -6 -5 -19 -23 -29 -38 -11 -16 -23 -25
-30 -21 -7 4 -9 4 -5 -1 7 -7 -21 -48 -76 -112 -19 -22 -19 -22 -33 -3 -8 11
-11 25 -7 32 4 6 3 8 -3 5 -9 -6 -55 51 -63 78 -2 6 -8 15 -15 20 -6 6 -45 51
-85 100 -97 117 -212 246 -216 242 -2 -1 10 -41 26 -87 56 -165 126 -476 165
-738 8 -57 25 -122 36 -145 33 -63 79 -317 115 -632 19 -165 25 -642 11 -820
-9 -105 -36 -283 -62 -398 -32 -144 -124 -395 -147 -405 -5 -2 -6 -8 -2 -13 3
-5 0 -9 -5 -9 -6 0 -10 -3 -9 -7 11 -52 -190 -317 -325 -431 -53 -43 -62 -41
-60 15 1 7 -3 11 -6 8 -8 -5 -67 111 -60 118 2 3 -3 13 -12 23 -25 29 -91 192
-83 205 4 7 3 9 -3 6 -10 -6 -38 59 -93 218 -36 101 -51 125 -73 107 -29 -24
-57 -206 -57 -377 -1 -160 19 -296 63 -426 l33 -99 -50 -19 c-67 -25 -211 -57
-316 -71 -131 -18 -303 0 -285 31 4 5 2 9 -4 9 -8 0 -24 51 -23 77 0 5 -3 13
-8 18 -7 9 -68 189 -74 218 -2 7 -8 25 -15 42 -7 16 -39 117 -73 225 -67 218
-72 230 -94 230 -42 0 -92 -272 -95 -514 l-1 -128 -54 53 c-29 29 -50 57 -47
62 3 6 2 7 -4 4 -10 -6 -20 6 -95 113 -167 243 -281 585 -335 1011 -24 191
-24 686 0 894 49 409 146 783 287 1101 209 472 477 775 845 953 319 156 641
205 1006 155z m-16392 -69 c144 -34 295 -142 375 -268 212 -331 67 -776 -298
-918 -350 -136 -735 64 -831 431 -13 49 -16 93 -13 180 4 99 9 126 36 195 74
185 223 320 417 376 76 22 228 24 314 4z m-1240 -1846 c430 -69 854 -776 957
-1596 21 -169 21 -489 0 -643 -63 -457 -251 -797 -554 -1002 -41 -27 -76 -48
-78 -45 -3 3 2 32 10 64 40 152 45 426 9 440 -22 8 -33 -8 -112 -160 -84 -163
-136 -249 -210 -350 l-54 -74 -36 9 c-20 6 -61 23 -91 38 -59 30 -188 132
-197 156 -3 8 6 41 20 72 63 139 86 325 63 500 -8 62 -18 117 -21 122 -19 31
-41 -1 -130 -182 -51 -106 -100 -201 -107 -212 -13 -16 -18 -9 -60 85 -95 216
-165 472 -209 759 -19 120 -23 189 -23 405 -1 277 7 365 49 543 29 119 31 171
11 211 -15 27 -300 306 -423 412 l-63 54 48 43 c119 109 339 235 509 293 213
72 472 94 692 58z m3641 -1042 c336 -88 627 -350 860 -778 237 -434 417 -1037
524 -1756 14 -95 26 -174 26 -176 0 -3 -206 47 -458 110 l-458 114 23 122 c36
198 49 395 35 545 -11 114 -41 264 -56 280 -3 3 -6 -20 -6 -51 0 -31 -9 -101
-19 -155 -45 -233 -145 -452 -344 -757 -51 -77 -101 -157 -111 -177 -21 -42
-149 -175 -211 -220 -36 -26 -40 -27 -46 -11 -4 10 -26 110 -49 223 -23 113
-46 215 -51 228 -15 38 -38 26 -65 -35 -63 -142 -92 -272 -103 -453 l-6 -105
-60 -5 c-83 -8 -188 4 -266 30 l-66 22 -17 76 c-9 43 -35 165 -57 272 -48 237
-46 230 -69 230 -13 0 -28 -19 -49 -65 -32 -67 -81 -223 -81 -256 0 -33 -18
-21 -53 39 -131 217 -216 491 -248 800 -17 165 -7 514 20 667 44 256 98 430
194 620 185 370 462 588 823 645 106 16 337 4 444 -23z"/>
<path d="M21911 22824 c-345 -93 -617 -524 -647 -1029 -13 -223 30 -445 122
-634 49 -99 66 -125 142 -201 99 -100 173 -143 286 -167 252 -53 530 117 699
427 176 321 219 749 110 1094 -69 218 -204 394 -365 477 -94 48 -240 62 -347
33z m337 -558 c160 -84 168 -401 14 -536 -134 -119 -287 -16 -300 202 -13 219
147 406 286 334z"/>
<path d="M11950 19734 c-399 -105 -719 -644 -697 -1174 9 -211 54 -358 151
-494 84 -117 189 -183 327 -205 308 -50 664 247 817 680 58 165 77 276 76 459
0 198 -20 293 -89 437 -76 156 -194 261 -339 299 -65 18 -176 17 -246 -2z
m310 -552 c123 -91 111 -332 -23 -466 -107 -107 -239 -77 -281 64 -27 92 -15
184 37 284 65 124 187 177 267 118z"/>
<path d="M15970 18860 c-255 -26 -502 -117 -705 -258 -96 -67 -303 -272 -329
-326 -50 -105 27 -236 140 -236 23 0 76 8 116 17 115 26 392 23 526 -5 134
-29 250 -72 391 -144 123 -64 147 -67 171 -23 17 33 7 55 -60 128 -145 159
-350 278 -588 341 l-86 23 73 42 c196 115 495 212 785 257 103 16 120 21 134
42 25 38 6 73 -51 94 -109 41 -365 65 -517 48z"/>
<path d="M13232 17700 c-42 -26 -67 -77 -58 -121 4 -22 66 -115 172 -257 l165
-223 -19 -77 c-46 -179 -145 -312 -323 -431 -312 -210 -631 -198 -897 32 -147
128 -260 282 -386 526 -72 138 -84 156 -106 156 -33 0 -73 -73 -102 -187 -17
-68 -20 -101 -15 -188 7 -134 25 -201 87 -325 82 -165 203 -293 369 -389 84
-49 231 -109 307 -127 l49 -11 -3 -237 c-2 -130 1 -292 8 -361 46 -499 193
-911 420 -1178 104 -123 272 -230 420 -268 91 -24 243 -22 344 5 430 114 808
635 995 1372 21 84 49 215 61 289 11 74 23 145 26 157 3 18 13 23 62 28 239
27 427 100 592 233 127 101 243 259 290 397 45 130 44 289 -1 403 -24 58 -45
76 -72 61 -9 -6 -70 -76 -134 -156 -211 -263 -326 -370 -483 -452 -107 -56
-199 -82 -310 -88 -220 -12 -393 67 -583 267 -132 138 -175 227 -197 407 -19
148 -22 141 168 318 185 171 212 204 212 249 0 37 -30 90 -61 107 -16 8 -846
86 -954 89 -5 0 -25 -9 -43 -20z"/>
</g>
</svg>
